<svg viewBox="0 0 512 512" xmlns="http://www.w3.org/2000/svg">
  <path d="m410.09,176.21c71.09,-114.69 -71.42,-232.84 -172.7,-166.67l-96.32,61.41c-46.64,30.37 -66.9,88.74 -38.45,148.73c-71.12,107.88 67.26,234.22 172.7,166.74l96.33,-61.41c52.41,-34.51 64.43,-94.02 38.45,-148.8m-241.16,-65.54l96.18,-61.38c63.18,-37.83 135.94,28.31 109.71,89.94c-15.58,-12.38 -32.94,-19.99 -46.13,-23.42c5.02,-19.91 -18.1,-34.68 -34.17,-24.39l-96.39,61.17c-23.83,16.47 1.57,50.36 25.13,36.13l36.73,-23.41c82.44,-46.51 160.45,65.17 83.78,119.91l-96.18,61.38c-57.96,37.07 -136.85,-22.31 -109.71,-89.94c14.42,10.91 29.72,18.93 46.13,23.41c-3.62,22.88 19.46,33.99 34.42,24.61l96.15,-61.38c23.73,-17.8 -1.74,-49.99 -25.1,-36.14l-36.87,23.42c-81.49,47.62 -161.33,-65.17 -83.67,-119.92" fill="#C5C5C5" transform="matrix(0.835031 0 0 0.835031 -69.3115 8.05219)"/>
  <path d="m331.24,462.17l19.59,-11.85c3.78,6.7 7.22,12.37 15.47,12.37c7.9,0 12.89,-3.1 12.89,-15.12l0,-81.8l24.05,0l0,82.14c0,24.91 -14.6,36.26 -35.91,36.26c-19.25,0 -30.42,-9.97 -36.09,-22m85.07,-2.58l19.59,-11.34c5.16,8.42 11.86,14.61 23.71,14.61c9.97,0 16.33,-4.98 16.33,-11.86c0,-8.25 -6.53,-11.17 -17.53,-15.98l-6.01,-2.58c-17.36,-7.39 -28.87,-16.67 -28.87,-36.26c0,-18.04 13.74,-31.79 35.23,-31.79c15.29,0 26.29,5.33 34.19,19.25l-18.73,12.03c-4.13,-7.39 -8.59,-10.31 -15.47,-10.31c-7.04,0 -11.51,4.47 -11.51,10.31c0,7.22 4.47,10.14 14.78,14.61l6.01,2.58c20.45,8.76 31.97,17.69 31.97,37.8c0,21.65 -17.02,33.51 -39.87,33.51c-22.34,0 -36.78,-10.65 -43.82,-24.58" fill="#C5C5C5" transform="matrix(1.6676 0 0 1.6676 -321.799 -295.406)"/>
</svg>
