<svg viewBox="0 0 512 512" xmlns="http://www.w3.org/2000/svg">
  <path d="m410.09,176.21c71.09,-114.69 -71.42,-232.84 -172.7,-166.67l-96.32,61.41c-46.64,30.37 -66.9,88.74 -38.45,148.73c-71.12,107.88 67.26,234.22 172.7,166.74l96.33,-61.41c52.41,-34.51 64.43,-94.02 38.45,-148.8m-241.16,-65.54l96.18,-61.38c63.18,-37.83 135.94,28.31 109.71,89.94c-15.58,-12.38 -32.94,-19.99 -46.13,-23.42c5.02,-19.91 -18.1,-34.68 -34.17,-24.39l-96.39,61.17c-23.83,16.47 1.57,50.36 25.13,36.13l36.73,-23.41c82.44,-46.51 160.45,65.17 83.78,119.91l-96.18,61.38c-57.96,37.07 -136.85,-22.31 -109.71,-89.94c14.42,10.91 29.72,18.93 46.13,23.41c-3.62,22.88 19.46,33.99 34.42,24.61l96.15,-61.38c23.73,-17.8 -1.74,-49.99 -25.1,-36.14l-36.87,23.42c-81.49,47.62 -161.33,-65.17 -83.67,-119.92" fill="#424242" transform="matrix(0.835031 0 0 0.835031 -69.3115 8.05219)"/>
  <path d="m345.25,513.57c-19.64,-0.02 -31.75,-11.08 -31.52,-31.42c0,0 0,-51.48 0,-51.48c0,-10.31 3.02,-18.16 9.06,-23.53c10.85,-10.45 36.02,-11.09 46.65,0.16c6.55,5.77 9.02,17.57 8.43,28.58l-22.54,0c0.17,-4.33 -0.06,-10.88 -2.6,-13.34c-3.3,-4.47 -12.03,-3.95 -14.34,0.71c-1.42,2.52 -2.13,6.26 -2.13,11.21l0,44.69c0,9.37 3.26,14.11 9.77,14.21c3.05,0 5.36,-1.11 6.93,-3.32c2.2,-2.62 2.54,-8.43 2.36,-12.64l22.54,0c1.54,21.42 -11.1,36.43 -32.62,36.16l0.01,0l-0.01,0.01l0.01,0zm71.55,0c-21.76,0.3 -31.49,-15.18 -30.89,-36.16l21.28,0c-0.59,9.15 2.55,17.48 10.08,16.9c3.36,0 5.72,-1.05 7.09,-3.16c2.6,-3.85 3.09,-14.96 -0.63,-19.27c-2.6,-4.14 -11.93,-7.8 -16.86,-10.26c-7.04,-3.37 -12.11,-7.37 -15.21,-12c-6.99,-10.29 -6.34,-32.86 3.47,-42c9.53,-11.29 34.43,-11.81 43.97,-0.23c5.89,5.96 8.46,17.7 7.96,28.5l-20.49,0c0.17,-4.44 -0.25,-11.6 -1.97,-14.21c-1.21,-2.21 -3.5,-3.32 -6.86,-3.32c-5.99,0 -8.98,3.58 -8.98,10.74c0.07,7.6 3.03,10.72 9.93,13.89c8.94,3.47 20.31,9.41 24.43,16.58c12.29,21.87 3.86,55.28 -26.32,54l0.01,0.01l-0.02,0l0.01,-0.01zm68.72,0c-21.76,0.3 -31.49,-15.18 -30.89,-36.16l21.28,0c-0.59,9.15 2.55,17.48 10.08,16.9c3.36,0 5.72,-1.05 7.09,-3.16c2.6,-3.85 3.09,-14.96 -0.63,-19.27c-2.6,-4.14 -11.93,-7.8 -16.86,-10.26c-7.04,-3.37 -12.11,-7.37 -15.21,-12c-6.99,-10.29 -6.34,-32.86 3.47,-42c9.53,-11.29 34.43,-11.81 43.97,-0.23c5.89,5.96 8.46,17.7 7.96,28.5l-20.49,0c0.17,-4.44 -0.25,-11.6 -1.97,-14.21c-1.21,-2.21 -3.5,-3.32 -6.86,-3.32c-5.99,0 -8.98,3.58 -8.98,10.74c0.07,7.6 3.03,10.72 9.93,13.89c8.94,3.47 20.31,9.41 24.43,16.58c12.29,21.87 3.86,55.28 -26.32,54l0.01,0.01l-0.02,0l0.01,-0.01z" fill="#424242" transform="matrix(1.70612 0 0 1.70612 -370.599 -364.331)"/>
</svg>
